<svg xmlns="http://www.w3.org/2000/svg" xmlns:xlink="http://www.w3.org/1999/xlink" width="500" zoomAndPan="magnify" viewBox="0 0 375 374.999991" height="500" preserveAspectRatio="xMidYMid meet" version="1.0"><defs><g/><clipPath id="3995ef23a2"><path d="M 0.210938 1.246094 L 83.390625 1.246094 L 83.390625 84.425781 L 0.210938 84.425781 Z M 0.210938 1.246094 " clip-rule="nonzero"/></clipPath><clipPath id="365f2ecf41"><path d="M 0.210938 0.53125 L 83.390625 0.53125 L 83.390625 83.425781 L 0.210938 83.425781 Z M 0.210938 0.53125 " clip-rule="nonzero"/></clipPath><clipPath id="e45de20da8"><rect x="0" width="84" y="0" height="84"/></clipPath><clipPath id="b4dd50302f"><path d="M 20 21 L 64 21 L 64 65 L 20 65 Z M 20 21 " clip-rule="nonzero"/></clipPath><clipPath id="ffc81286bf"><path d="M 11.539062 41.417969 L 40.136719 12.820312 L 83.308594 55.988281 L 54.707031 84.589844 Z M 11.539062 41.417969 " clip-rule="nonzero"/></clipPath><clipPath id="6f8f986078"><path d="M 11.539062 41.417969 L 40.136719 12.820312 L 83.308594 55.988281 L 54.707031 84.589844 Z M 11.539062 41.417969 " clip-rule="nonzero"/></clipPath><clipPath id="9e3286b6a8"><path d="M 55 56 L 67 56 L 67 68 L 55 68 Z M 55 56 " clip-rule="nonzero"/></clipPath><clipPath id="9e98235898"><path d="M 11.539062 41.417969 L 40.136719 12.820312 L 83.308594 55.988281 L 54.707031 84.589844 Z M 11.539062 41.417969 " clip-rule="nonzero"/></clipPath><clipPath id="286c2f2b9b"><path d="M 11.539062 41.417969 L 40.136719 12.820312 L 83.308594 55.988281 L 54.707031 84.589844 Z M 11.539062 41.417969 " clip-rule="nonzero"/></clipPath><clipPath id="773c161c74"><path d="M 58 59 L 71 59 L 71 72 L 58 72 Z M 58 59 " clip-rule="nonzero"/></clipPath><clipPath id="549d688220"><path d="M 11.539062 41.417969 L 40.136719 12.820312 L 83.308594 55.988281 L 54.707031 84.589844 Z M 11.539062 41.417969 " clip-rule="nonzero"/></clipPath><clipPath id="429306e33e"><path d="M 11.539062 41.417969 L 40.136719 12.820312 L 83.308594 55.988281 L 54.707031 84.589844 Z M 11.539062 41.417969 " clip-rule="nonzero"/></clipPath><clipPath id="bebb68d143"><path d="M 64 65 L 73 65 L 73 74 L 64 74 Z M 64 65 " clip-rule="nonzero"/></clipPath><clipPath id="06c02e2f03"><path d="M 11.539062 41.417969 L 40.136719 12.820312 L 83.308594 55.988281 L 54.707031 84.589844 Z M 11.539062 41.417969 " clip-rule="nonzero"/></clipPath><clipPath id="071d31025f"><path d="M 11.539062 41.417969 L 40.136719 12.820312 L 83.308594 55.988281 L 54.707031 84.589844 Z M 11.539062 41.417969 " clip-rule="nonzero"/></clipPath><clipPath id="38199a867e"><rect x="0" width="84" y="0" height="85"/></clipPath><clipPath id="44f7df1c59"><rect x="0" width="326" y="0" height="130"/></clipPath><clipPath id="4f6e2b490b"><rect x="0" width="239" y="0" height="23"/></clipPath></defs><g transform="matrix(1, 0, 0, 1, 254, 55)"><g clip-path="url(#38199a867e)"><g clip-path="url(#3995ef23a2)"><g transform="matrix(1, 0, 0, 1, -0.000000000000028422, 1)"><g clip-path="url(#e45de20da8)"><g clip-path="url(#365f2ecf41)"><path fill="#ffb23e" d="M 42.535156 0.246094 L 41.332031 0.246094 C 18.625 0.246094 0.210938 18.660156 0.210938 41.386719 L 0.210938 42.589844 C 0.210938 65.296875 18.625 83.710938 41.351562 83.710938 L 83.472656 83.710938 C 83.59375 83.710938 83.675781 83.609375 83.675781 83.507812 L 83.675781 41.386719 C 83.675781 18.660156 65.261719 0.246094 42.535156 0.246094 Z M 42.535156 0.246094 " fill-opacity="1" fill-rule="nonzero"/></g></g></g></g><g clip-path="url(#b4dd50302f)"><g clip-path="url(#ffc81286bf)"><g clip-path="url(#6f8f986078)"><path fill="#041f3f" d="M 25.976562 27.011719 C 25.503906 27.484375 25.054688 27.980469 24.632812 28.496094 C 24.210938 29.011719 23.8125 29.546875 23.441406 30.105469 C 23.070312 30.660156 22.730469 31.230469 22.414062 31.820312 C 22.101562 32.410156 21.816406 33.011719 21.5625 33.628906 C 21.304688 34.246094 21.082031 34.875 20.886719 35.515625 C 20.695312 36.152344 20.53125 36.800781 20.402344 37.457031 C 20.273438 38.109375 20.175781 38.769531 20.109375 39.433594 C 20.042969 40.101562 20.011719 40.765625 20.011719 41.433594 C 20.011719 42.101562 20.042969 42.769531 20.109375 43.433594 C 20.175781 44.097656 20.273438 44.757812 20.402344 45.410156 C 20.53125 46.066406 20.695312 46.714844 20.886719 47.351562 C 21.082031 47.992188 21.304688 48.621094 21.5625 49.238281 C 21.816406 49.855469 22.101562 50.457031 22.414062 51.046875 C 22.730469 51.636719 23.070312 52.207031 23.441406 52.761719 C 23.8125 53.320312 24.210938 53.855469 24.632812 54.371094 C 25.054688 54.886719 25.503906 55.382812 25.976562 55.855469 C 29.800781 59.683594 35.421875 60.507812 40.375 61.242188 C 41.222656 61.367188 42.066406 61.488281 42.882812 61.621094 C 44.5 61.894531 45.996094 62.480469 47.367188 63.378906 C 47.964844 63.777344 48.613281 64.066406 49.3125 64.242188 C 50.007812 64.421875 50.714844 64.476562 51.429688 64.410156 C 52.148438 64.34375 52.832031 64.160156 53.484375 63.859375 C 54.136719 63.554688 54.722656 63.152344 55.234375 62.648438 L 61.613281 56.273438 C 62.113281 55.761719 62.515625 55.175781 62.816406 54.523438 C 63.117188 53.871094 63.300781 53.1875 63.367188 52.472656 C 63.433594 51.757812 63.378906 51.050781 63.203125 50.355469 C 63.023438 49.660156 62.738281 49.011719 62.339844 48.414062 C 61.441406 47.042969 60.855469 45.546875 60.582031 43.929688 C 60.445312 43.109375 60.324219 42.265625 60.203125 41.425781 C 59.46875 36.457031 58.644531 30.839844 54.820312 27.011719 C 54.347656 26.539062 53.851562 26.09375 53.335938 25.667969 C 52.820312 25.246094 52.28125 24.851562 51.726562 24.480469 C 51.171875 24.109375 50.597656 23.765625 50.011719 23.453125 C 49.421875 23.136719 48.816406 22.851562 48.199219 22.597656 C 47.582031 22.34375 46.957031 22.117188 46.316406 21.925781 C 45.675781 21.730469 45.03125 21.570312 44.375 21.4375 C 43.71875 21.308594 43.058594 21.210938 42.394531 21.144531 C 41.730469 21.082031 41.066406 21.046875 40.398438 21.046875 C 39.730469 21.046875 39.0625 21.082031 38.398438 21.144531 C 37.734375 21.210938 37.074219 21.308594 36.417969 21.4375 C 35.765625 21.570312 35.117188 21.730469 34.476562 21.925781 C 33.839844 22.117188 33.210938 22.34375 32.59375 22.597656 C 31.976562 22.851562 31.375 23.136719 30.785156 23.453125 C 30.195312 23.765625 29.625 24.109375 29.066406 24.480469 C 28.511719 24.851562 27.976562 25.246094 27.460938 25.667969 C 26.941406 26.09375 26.449219 26.539062 25.976562 27.011719 Z M 25.976562 27.011719 " fill-opacity="1" fill-rule="nonzero"/></g></g></g><g clip-path="url(#9e3286b6a8)"><g clip-path="url(#9e98235898)"><g clip-path="url(#286c2f2b9b)"><path fill="#041f3f" d="M 64.734375 56.757812 L 55.71875 65.769531 C 55.601562 65.890625 55.507812 66.027344 55.445312 66.183594 C 55.378906 66.339844 55.347656 66.503906 55.347656 66.671875 C 55.347656 66.839844 55.378906 67.003906 55.445312 67.160156 C 55.507812 67.316406 55.601562 67.453125 55.71875 67.574219 C 55.839844 67.691406 55.976562 67.785156 56.132812 67.851562 C 56.289062 67.914062 56.453125 67.945312 56.621094 67.945312 C 56.789062 67.945312 56.953125 67.914062 57.109375 67.851562 C 57.265625 67.785156 57.402344 67.691406 57.523438 67.574219 L 66.535156 58.558594 C 66.65625 58.441406 66.75 58.300781 66.8125 58.144531 C 66.878906 57.988281 66.910156 57.828125 66.910156 57.660156 C 66.910156 57.488281 66.878906 57.328125 66.8125 57.171875 C 66.75 57.015625 66.65625 56.875 66.535156 56.757812 C 66.417969 56.636719 66.28125 56.546875 66.125 56.480469 C 65.96875 56.417969 65.804688 56.382812 65.636719 56.382812 C 65.464844 56.382812 65.304688 56.417969 65.148438 56.480469 C 64.992188 56.546875 64.855469 56.636719 64.734375 56.757812 Z M 64.734375 56.757812 " fill-opacity="1" fill-rule="nonzero"/></g></g></g><g clip-path="url(#773c161c74)"><g clip-path="url(#549d688220)"><g clip-path="url(#429306e33e)"><path fill="#041f3f" d="M 68.339844 60.363281 L 59.324219 69.375 C 59.207031 69.496094 59.113281 69.632812 59.050781 69.789062 C 58.984375 69.945312 58.953125 70.109375 58.953125 70.277344 C 58.953125 70.445312 58.984375 70.609375 59.050781 70.765625 C 59.113281 70.921875 59.207031 71.058594 59.324219 71.179688 C 59.445312 71.296875 59.582031 71.390625 59.738281 71.457031 C 59.894531 71.519531 60.058594 71.550781 60.226562 71.550781 C 60.394531 71.550781 60.558594 71.519531 60.714844 71.457031 C 60.871094 71.390625 61.007812 71.296875 61.128906 71.179688 L 70.140625 62.164062 C 70.261719 62.046875 70.355469 61.90625 70.417969 61.75 C 70.484375 61.59375 70.515625 61.433594 70.515625 61.265625 C 70.515625 61.09375 70.484375 60.933594 70.417969 60.777344 C 70.355469 60.621094 70.261719 60.480469 70.140625 60.363281 C 70.023438 60.242188 69.886719 60.152344 69.730469 60.085938 C 69.574219 60.023438 69.410156 59.988281 69.242188 59.988281 C 69.070312 59.988281 68.910156 60.023438 68.753906 60.085938 C 68.597656 60.152344 68.460938 60.242188 68.339844 60.363281 Z M 68.339844 60.363281 " fill-opacity="1" fill-rule="nonzero"/></g></g></g><g clip-path="url(#bebb68d143)"><g clip-path="url(#06c02e2f03)"><g clip-path="url(#071d31025f)"><path fill="#041f3f" d="M 70.140625 65.769531 L 64.734375 71.179688 C 64.613281 71.296875 64.523438 71.4375 64.457031 71.59375 C 64.394531 71.75 64.359375 71.910156 64.359375 72.082031 C 64.359375 72.25 64.394531 72.414062 64.457031 72.566406 C 64.523438 72.722656 64.613281 72.863281 64.734375 72.980469 C 64.855469 73.101562 64.992188 73.195312 65.148438 73.257812 C 65.304688 73.324219 65.464844 73.355469 65.636719 73.355469 C 65.804688 73.355469 65.96875 73.324219 66.125 73.257812 C 66.28125 73.195312 66.417969 73.101562 66.535156 72.980469 L 71.945312 67.574219 C 72.066406 67.453125 72.15625 67.316406 72.222656 67.160156 C 72.285156 67.003906 72.320312 66.839844 72.320312 66.671875 C 72.320312 66.503906 72.285156 66.339844 72.222656 66.183594 C 72.15625 66.027344 72.066406 65.890625 71.945312 65.769531 C 71.824219 65.652344 71.6875 65.558594 71.53125 65.496094 C 71.375 65.429688 71.214844 65.398438 71.042969 65.398438 C 70.875 65.398438 70.710938 65.429688 70.554688 65.496094 C 70.398438 65.558594 70.261719 65.652344 70.140625 65.769531 Z M 70.140625 65.769531 " fill-opacity="1" fill-rule="nonzero"/></g></g></g></g></g><g transform="matrix(1, 0, 0, 1, 20, 120)"><g clip-path="url(#44f7df1c59)"><g fill="#ffffff" fill-opacity="1"><g transform="translate(0.64864, 95.935347)"><g><path d="M 54.609375 -43.546875 C 54.609375 -39.828125 53.753906 -36.425781 52.046875 -33.34375 C 50.347656 -30.257812 47.726562 -27.769531 44.1875 -25.875 C 40.644531 -23.988281 36.253906 -23.046875 31.015625 -23.046875 L 21.3125 -23.046875 L 21.3125 0 L 5.671875 0 L 5.671875 -64.21875 L 31.015625 -64.21875 C 36.140625 -64.21875 40.46875 -63.332031 44 -61.5625 C 47.539062 -59.800781 50.191406 -57.363281 51.953125 -54.25 C 53.722656 -51.132812 54.609375 -47.566406 54.609375 -43.546875 Z M 29.828125 -35.5 C 32.816406 -35.5 35.039062 -36.195312 36.5 -37.59375 C 37.96875 -39 38.703125 -40.984375 38.703125 -43.546875 C 38.703125 -46.109375 37.96875 -48.085938 36.5 -49.484375 C 35.039062 -50.890625 32.816406 -51.59375 29.828125 -51.59375 L 21.3125 -51.59375 L 21.3125 -35.5 Z M 29.828125 -35.5 "/></g></g></g><g fill="#ffffff" fill-opacity="1"><g transform="translate(54.706784, 95.935347)"><g><path d="M 53.796875 -26.34375 C 53.796875 -24.882812 53.703125 -23.359375 53.515625 -21.765625 L 18.109375 -21.765625 C 18.359375 -18.597656 19.378906 -16.175781 21.171875 -14.5 C 22.972656 -12.820312 25.1875 -11.984375 27.8125 -11.984375 C 31.71875 -11.984375 34.429688 -13.628906 35.953125 -16.921875 L 52.609375 -16.921875 C 51.753906 -13.566406 50.210938 -10.546875 47.984375 -7.859375 C 45.753906 -5.179688 42.960938 -3.078125 39.609375 -1.546875 C 36.253906 -0.0234375 32.503906 0.734375 28.359375 0.734375 C 23.359375 0.734375 18.90625 -0.332031 15 -2.46875 C 11.09375 -4.601562 8.039062 -7.648438 5.84375 -11.609375 C 3.65625 -15.578125 2.5625 -20.21875 2.5625 -25.53125 C 2.5625 -30.832031 3.644531 -35.460938 5.8125 -39.421875 C 7.976562 -43.390625 11.007812 -46.441406 14.90625 -48.578125 C 18.8125 -50.710938 23.296875 -51.78125 28.359375 -51.78125 C 33.296875 -51.78125 37.6875 -50.742188 41.53125 -48.671875 C 45.375 -46.597656 48.378906 -43.640625 50.546875 -39.796875 C 52.710938 -35.953125 53.796875 -31.46875 53.796875 -26.34375 Z M 37.78125 -30.46875 C 37.78125 -33.144531 36.863281 -35.273438 35.03125 -36.859375 C 33.207031 -38.453125 30.921875 -39.25 28.171875 -39.25 C 25.554688 -39.25 23.347656 -38.484375 21.546875 -36.953125 C 19.742188 -35.429688 18.628906 -33.269531 18.203125 -30.46875 Z M 37.78125 -30.46875 "/></g></g></g><g fill="#ffffff" fill-opacity="1"><g transform="translate(108.03316, 95.935347)"><g><path d="M 34.125 -13.265625 L 34.125 0 L 26.171875 0 C 20.492188 0 16.066406 -1.382812 12.890625 -4.15625 C 9.722656 -6.9375 8.140625 -11.46875 8.140625 -17.75 L 8.140625 -38.0625 L 1.921875 -38.0625 L 1.921875 -51.046875 L 8.140625 -51.046875 L 8.140625 -63.484375 L 23.78125 -63.484375 L 23.78125 -51.046875 L 34.03125 -51.046875 L 34.03125 -38.0625 L 23.78125 -38.0625 L 23.78125 -17.5625 C 23.78125 -16.039062 24.144531 -14.941406 24.875 -14.265625 C 25.613281 -13.597656 26.835938 -13.265625 28.546875 -13.265625 Z M 34.125 -13.265625 "/></g></g></g><g fill="#ffffff" fill-opacity="1"><g transform="translate(142.150743, 95.935347)"><g><path d="M 61.296875 -64.21875 L 61.296875 0 L 45.65625 0 L 45.65625 -26.4375 L 21.3125 -26.4375 L 21.3125 0 L 5.671875 0 L 5.671875 -64.21875 L 21.3125 -64.21875 L 21.3125 -39.0625 L 45.65625 -39.0625 L 45.65625 -64.21875 Z M 61.296875 -64.21875 "/></g></g></g><g fill="#ffffff" fill-opacity="1"><g transform="translate(205.996245, 95.935347)"><g><path d="M 56.078125 -51.046875 L 56.078125 0 L 40.4375 0 L 40.4375 -6.953125 C 38.851562 -4.691406 36.703125 -2.875 33.984375 -1.5 C 31.273438 -0.132812 28.269531 0.546875 24.96875 0.546875 C 21.070312 0.546875 17.628906 -0.320312 14.640625 -2.0625 C 11.648438 -3.800781 9.332031 -6.316406 7.6875 -9.609375 C 6.039062 -12.898438 5.21875 -16.769531 5.21875 -21.21875 L 5.21875 -51.046875 L 20.765625 -51.046875 L 20.765625 -23.328125 C 20.765625 -19.910156 21.648438 -17.253906 23.421875 -15.359375 C 25.191406 -13.472656 27.570312 -12.53125 30.5625 -12.53125 C 33.601562 -12.53125 36.007812 -13.472656 37.78125 -15.359375 C 39.550781 -17.253906 40.4375 -19.910156 40.4375 -23.328125 L 40.4375 -51.046875 Z M 56.078125 -51.046875 "/></g></g></g><g fill="#ffffff" fill-opacity="1"><g transform="translate(264.627916, 95.935347)"><g><path d="M 21.3125 -43.828125 C 22.78125 -46.203125 24.882812 -48.117188 27.625 -49.578125 C 30.375 -51.046875 33.515625 -51.78125 37.046875 -51.78125 C 41.253906 -51.78125 45.066406 -50.710938 48.484375 -48.578125 C 51.898438 -46.441406 54.597656 -43.390625 56.578125 -39.421875 C 58.566406 -35.460938 59.5625 -30.859375 59.5625 -25.609375 C 59.5625 -20.367188 58.566406 -15.75 56.578125 -11.75 C 54.597656 -7.757812 51.898438 -4.679688 48.484375 -2.515625 C 45.066406 -0.347656 41.253906 0.734375 37.046875 0.734375 C 33.453125 0.734375 30.3125 0.0195312 27.625 -1.40625 C 24.945312 -2.84375 22.84375 -4.753906 21.3125 -7.140625 L 21.3125 0 L 5.671875 0 L 5.671875 -67.703125 L 21.3125 -67.703125 Z M 43.640625 -25.609375 C 43.640625 -29.515625 42.554688 -32.582031 40.390625 -34.8125 C 38.222656 -37.039062 35.554688 -38.15625 32.390625 -38.15625 C 29.273438 -38.15625 26.632812 -37.023438 24.46875 -34.765625 C 22.300781 -32.503906 21.21875 -29.425781 21.21875 -25.53125 C 21.21875 -21.625 22.300781 -18.539062 24.46875 -16.28125 C 26.632812 -14.03125 29.273438 -12.90625 32.390625 -12.90625 C 35.492188 -12.90625 38.144531 -14.046875 40.34375 -16.328125 C 42.539062 -18.617188 43.640625 -21.710938 43.640625 -25.609375 Z M 43.640625 -25.609375 "/></g></g></g></g></g><g transform="matrix(1, 0, 0, 1, 72, 228)"><g clip-path="url(#4f6e2b490b)"><g fill="#ffffff" fill-opacity="1"><g transform="translate(0.331252, 16.897524)"><g><path d="M 4.640625 0.109375 C 3.929688 0.109375 3.289062 -0.015625 2.71875 -0.265625 C 2.15625 -0.523438 1.710938 -0.878906 1.390625 -1.328125 C 1.066406 -1.785156 0.898438 -2.3125 0.890625 -2.90625 L 2.40625 -2.90625 C 2.457031 -2.394531 2.664062 -1.960938 3.03125 -1.609375 C 3.40625 -1.265625 3.941406 -1.09375 4.640625 -1.09375 C 5.316406 -1.09375 5.847656 -1.257812 6.234375 -1.59375 C 6.628906 -1.9375 6.828125 -2.375 6.828125 -2.90625 C 6.828125 -3.320312 6.710938 -3.65625 6.484375 -3.90625 C 6.253906 -4.164062 5.96875 -4.363281 5.625 -4.5 C 5.28125 -4.632812 4.816406 -4.78125 4.234375 -4.9375 C 3.523438 -5.125 2.953125 -5.3125 2.515625 -5.5 C 2.085938 -5.6875 1.71875 -5.976562 1.40625 -6.375 C 1.101562 -6.78125 0.953125 -7.320312 0.953125 -8 C 0.953125 -8.59375 1.101562 -9.117188 1.40625 -9.578125 C 1.707031 -10.035156 2.128906 -10.390625 2.671875 -10.640625 C 3.222656 -10.890625 3.847656 -11.015625 4.546875 -11.015625 C 5.566406 -11.015625 6.398438 -10.757812 7.046875 -10.25 C 7.703125 -9.738281 8.070312 -9.0625 8.15625 -8.21875 L 6.59375 -8.21875 C 6.539062 -8.632812 6.320312 -9 5.9375 -9.3125 C 5.550781 -9.632812 5.039062 -9.796875 4.40625 -9.796875 C 3.820312 -9.796875 3.34375 -9.640625 2.96875 -9.328125 C 2.59375 -9.023438 2.40625 -8.597656 2.40625 -8.046875 C 2.40625 -7.648438 2.515625 -7.328125 2.734375 -7.078125 C 2.960938 -6.828125 3.238281 -6.632812 3.5625 -6.5 C 3.882812 -6.375 4.34375 -6.226562 4.9375 -6.0625 C 5.65625 -5.863281 6.234375 -5.664062 6.671875 -5.46875 C 7.109375 -5.28125 7.484375 -4.984375 7.796875 -4.578125 C 8.109375 -4.179688 8.265625 -3.644531 8.265625 -2.96875 C 8.265625 -2.4375 8.125 -1.9375 7.84375 -1.46875 C 7.5625 -1 7.144531 -0.617188 6.59375 -0.328125 C 6.039062 -0.0351562 5.390625 0.109375 4.640625 0.109375 Z M 4.640625 0.109375 "/></g></g></g><g fill="#ffffff" fill-opacity="1"><g transform="translate(11.731826, 16.897524)"><g><path d="M 2.625 -10.875 L 2.625 0 L 1.203125 0 L 1.203125 -10.875 Z M 2.625 -10.875 "/></g></g></g><g fill="#ffffff" fill-opacity="1"><g transform="translate(17.814923, 16.897524)"><g><path d="M 4.640625 0.109375 C 3.929688 0.109375 3.289062 -0.015625 2.71875 -0.265625 C 2.15625 -0.523438 1.710938 -0.878906 1.390625 -1.328125 C 1.066406 -1.785156 0.898438 -2.3125 0.890625 -2.90625 L 2.40625 -2.90625 C 2.457031 -2.394531 2.664062 -1.960938 3.03125 -1.609375 C 3.40625 -1.265625 3.941406 -1.09375 4.640625 -1.09375 C 5.316406 -1.09375 5.847656 -1.257812 6.234375 -1.59375 C 6.628906 -1.9375 6.828125 -2.375 6.828125 -2.90625 C 6.828125 -3.320312 6.710938 -3.65625 6.484375 -3.90625 C 6.253906 -4.164062 5.96875 -4.363281 5.625 -4.5 C 5.28125 -4.632812 4.816406 -4.78125 4.234375 -4.9375 C 3.523438 -5.125 2.953125 -5.3125 2.515625 -5.5 C 2.085938 -5.6875 1.71875 -5.976562 1.40625 -6.375 C 1.101562 -6.78125 0.953125 -7.320312 0.953125 -8 C 0.953125 -8.59375 1.101562 -9.117188 1.40625 -9.578125 C 1.707031 -10.035156 2.128906 -10.390625 2.671875 -10.640625 C 3.222656 -10.890625 3.847656 -11.015625 4.546875 -11.015625 C 5.566406 -11.015625 6.398438 -10.757812 7.046875 -10.25 C 7.703125 -9.738281 8.070312 -9.0625 8.15625 -8.21875 L 6.59375 -8.21875 C 6.539062 -8.632812 6.320312 -9 5.9375 -9.3125 C 5.550781 -9.632812 5.039062 -9.796875 4.40625 -9.796875 C 3.820312 -9.796875 3.34375 -9.640625 2.96875 -9.328125 C 2.59375 -9.023438 2.40625 -8.597656 2.40625 -8.046875 C 2.40625 -7.648438 2.515625 -7.328125 2.734375 -7.078125 C 2.960938 -6.828125 3.238281 -6.632812 3.5625 -6.5 C 3.882812 -6.375 4.34375 -6.226562 4.9375 -6.0625 C 5.65625 -5.863281 6.234375 -5.664062 6.671875 -5.46875 C 7.109375 -5.28125 7.484375 -4.984375 7.796875 -4.578125 C 8.109375 -4.179688 8.265625 -3.644531 8.265625 -2.96875 C 8.265625 -2.4375 8.125 -1.9375 7.84375 -1.46875 C 7.5625 -1 7.144531 -0.617188 6.59375 -0.328125 C 6.039062 -0.0351562 5.390625 0.109375 4.640625 0.109375 Z M 4.640625 0.109375 "/></g></g></g><g fill="#ffffff" fill-opacity="1"><g transform="translate(29.215497, 16.897524)"><g><path d="M 7.890625 -10.875 L 7.890625 -9.71875 L 4.921875 -9.71875 L 4.921875 0 L 3.515625 0 L 3.515625 -9.71875 L 0.53125 -9.71875 L 0.53125 -10.875 Z M 7.890625 -10.875 "/></g></g></g><g fill="#ffffff" fill-opacity="1"><g transform="translate(39.898758, 16.897524)"><g><path d="M 2.625 -9.71875 L 2.625 -6.078125 L 6.578125 -6.078125 L 6.578125 -4.90625 L 2.625 -4.90625 L 2.625 -1.171875 L 7.046875 -1.171875 L 7.046875 0 L 1.203125 0 L 1.203125 -10.890625 L 7.046875 -10.890625 L 7.046875 -9.71875 Z M 2.625 -9.71875 "/></g></g></g><g fill="#ffffff" fill-opacity="1"><g transform="translate(50.145396, 16.897524)"><g><path d="M 12.21875 -10.796875 L 12.21875 0 L 10.8125 0 L 10.8125 -8.046875 L 7.21875 0 L 6.21875 0 L 2.625 -8.0625 L 2.625 0 L 1.203125 0 L 1.203125 -10.796875 L 2.734375 -10.796875 L 6.71875 -1.875 L 10.71875 -10.796875 Z M 12.21875 -10.796875 "/></g></g></g><g fill="#ffffff" fill-opacity="1"><g transform="translate(65.818673, 16.897524)"><g><path d="M 7.625 -2.421875 L 2.890625 -2.421875 L 2.015625 0 L 0.515625 0 L 4.4375 -10.8125 L 6.078125 -10.8125 L 10 0 L 8.5 0 Z M 7.21875 -3.578125 L 5.25 -9.0625 L 3.296875 -3.578125 Z M 7.21875 -3.578125 "/></g></g></g><g fill="#ffffff" fill-opacity="1"><g transform="translate(78.575914, 16.897524)"><g/></g></g><g fill="#ffffff" fill-opacity="1"><g transform="translate(84.986471, 16.897524)"><g><path d="M 8.46875 -7.6875 C 8.46875 -6.78125 8.15625 -6.023438 7.53125 -5.421875 C 6.914062 -4.828125 5.972656 -4.53125 4.703125 -4.53125 L 2.625 -4.53125 L 2.625 0 L 1.203125 0 L 1.203125 -10.875 L 4.703125 -10.875 C 5.929688 -10.875 6.863281 -10.578125 7.5 -9.984375 C 8.144531 -9.390625 8.46875 -8.625 8.46875 -7.6875 Z M 4.703125 -5.703125 C 5.492188 -5.703125 6.078125 -5.875 6.453125 -6.21875 C 6.828125 -6.5625 7.015625 -7.050781 7.015625 -7.6875 C 7.015625 -9.03125 6.242188 -9.703125 4.703125 -9.703125 L 2.625 -9.703125 L 2.625 -5.703125 Z M 4.703125 -5.703125 "/></g></g></g><g fill="#ffffff" fill-opacity="1"><g transform="translate(96.262302, 16.897524)"><g><path d="M 2.625 -9.71875 L 2.625 -6.078125 L 6.578125 -6.078125 L 6.578125 -4.90625 L 2.625 -4.90625 L 2.625 -1.171875 L 7.046875 -1.171875 L 7.046875 0 L 1.203125 0 L 1.203125 -10.890625 L 7.046875 -10.890625 L 7.046875 -9.71875 Z M 2.625 -9.71875 "/></g></g></g><g fill="#ffffff" fill-opacity="1"><g transform="translate(106.508939, 16.897524)"><g><path d="M 7.890625 -10.875 L 7.890625 -9.71875 L 4.921875 -9.71875 L 4.921875 0 L 3.515625 0 L 3.515625 -9.71875 L 0.53125 -9.71875 L 0.53125 -10.875 Z M 7.890625 -10.875 "/></g></g></g><g fill="#ffffff" fill-opacity="1"><g transform="translate(117.1922, 16.897524)"><g/></g></g><g fill="#ffffff" fill-opacity="1"><g transform="translate(123.602757, 16.897524)"><g><path d="M 2.625 -10.875 L 2.625 0 L 1.203125 0 L 1.203125 -10.875 Z M 2.625 -10.875 "/></g></g></g><g fill="#ffffff" fill-opacity="1"><g transform="translate(129.685855, 16.897524)"><g><path d="M 9.75 0 L 8.328125 0 L 2.625 -8.65625 L 2.625 0 L 1.203125 0 L 1.203125 -10.890625 L 2.625 -10.890625 L 8.328125 -2.25 L 8.328125 -10.890625 L 9.75 -10.890625 Z M 9.75 0 "/></g></g></g><g fill="#ffffff" fill-opacity="1"><g transform="translate(142.895313, 16.897524)"><g><path d="M 7.890625 -10.875 L 7.890625 -9.71875 L 4.921875 -9.71875 L 4.921875 0 L 3.515625 0 L 3.515625 -9.71875 L 0.53125 -9.71875 L 0.53125 -10.875 Z M 7.890625 -10.875 "/></g></g></g><g fill="#ffffff" fill-opacity="1"><g transform="translate(153.578574, 16.897524)"><g><path d="M 2.625 -9.71875 L 2.625 -6.078125 L 6.578125 -6.078125 L 6.578125 -4.90625 L 2.625 -4.90625 L 2.625 -1.171875 L 7.046875 -1.171875 L 7.046875 0 L 1.203125 0 L 1.203125 -10.890625 L 7.046875 -10.890625 L 7.046875 -9.71875 Z M 2.625 -9.71875 "/></g></g></g><g fill="#ffffff" fill-opacity="1"><g transform="translate(163.825212, 16.897524)"><g><path d="M 2.625 -1.15625 L 6.421875 -1.15625 L 6.421875 0 L 1.203125 0 L 1.203125 -10.875 L 2.625 -10.875 Z M 2.625 -1.15625 "/></g></g></g><g fill="#ffffff" fill-opacity="1"><g transform="translate(172.808751, 16.897524)"><g><path d="M 2.625 -10.875 L 2.625 0 L 1.203125 0 L 1.203125 -10.875 Z M 2.625 -10.875 "/></g></g></g><g fill="#ffffff" fill-opacity="1"><g transform="translate(178.891849, 16.897524)"><g><path d="M 9.4375 -7.71875 C 9.132812 -8.351562 8.695312 -8.84375 8.125 -9.1875 C 7.550781 -9.539062 6.882812 -9.71875 6.125 -9.71875 C 5.363281 -9.71875 4.679688 -9.539062 4.078125 -9.1875 C 3.472656 -8.84375 2.992188 -8.34375 2.640625 -7.6875 C 2.296875 -7.039062 2.125 -6.289062 2.125 -5.4375 C 2.125 -4.582031 2.296875 -3.832031 2.640625 -3.1875 C 2.992188 -2.550781 3.472656 -2.054688 4.078125 -1.703125 C 4.679688 -1.359375 5.363281 -1.1875 6.125 -1.1875 C 7.1875 -1.1875 8.0625 -1.503906 8.75 -2.140625 C 9.4375 -2.773438 9.835938 -3.628906 9.953125 -4.703125 L 5.609375 -4.703125 L 5.609375 -5.859375 L 11.46875 -5.859375 L 11.46875 -4.765625 C 11.382812 -3.878906 11.101562 -3.0625 10.625 -2.3125 C 10.144531 -1.570312 9.515625 -0.984375 8.734375 -0.546875 C 7.953125 -0.117188 7.082031 0.09375 6.125 0.09375 C 5.113281 0.09375 4.191406 -0.140625 3.359375 -0.609375 C 2.535156 -1.085938 1.878906 -1.75 1.390625 -2.59375 C 0.910156 -3.4375 0.671875 -4.382812 0.671875 -5.4375 C 0.671875 -6.5 0.910156 -7.453125 1.390625 -8.296875 C 1.878906 -9.148438 2.535156 -9.8125 3.359375 -10.28125 C 4.191406 -10.757812 5.113281 -11 6.125 -11 C 7.28125 -11 8.300781 -10.710938 9.1875 -10.140625 C 10.082031 -9.566406 10.734375 -8.757812 11.140625 -7.71875 Z M 9.4375 -7.71875 "/></g></g></g><g fill="#ffffff" fill-opacity="1"><g transform="translate(193.270837, 16.897524)"><g><path d="M 2.625 -9.71875 L 2.625 -6.078125 L 6.578125 -6.078125 L 6.578125 -4.90625 L 2.625 -4.90625 L 2.625 -1.171875 L 7.046875 -1.171875 L 7.046875 0 L 1.203125 0 L 1.203125 -10.890625 L 7.046875 -10.890625 L 7.046875 -9.71875 Z M 2.625 -9.71875 "/></g></g></g><g fill="#ffffff" fill-opacity="1"><g transform="translate(203.517475, 16.897524)"><g><path d="M 9.75 0 L 8.328125 0 L 2.625 -8.65625 L 2.625 0 L 1.203125 0 L 1.203125 -10.890625 L 2.625 -10.890625 L 8.328125 -2.25 L 8.328125 -10.890625 L 9.75 -10.890625 Z M 9.75 0 "/></g></g></g><g fill="#ffffff" fill-opacity="1"><g transform="translate(216.726934, 16.897524)"><g><path d="M 7.890625 -10.875 L 7.890625 -9.71875 L 4.921875 -9.71875 L 4.921875 0 L 3.515625 0 L 3.515625 -9.71875 L 0.53125 -9.71875 L 0.53125 -10.875 Z M 7.890625 -10.875 "/></g></g></g><g fill="#ffffff" fill-opacity="1"><g transform="translate(227.410194, 16.897524)"><g><path d="M 2.625 -9.71875 L 2.625 -6.078125 L 6.578125 -6.078125 L 6.578125 -4.90625 L 2.625 -4.90625 L 2.625 -1.171875 L 7.046875 -1.171875 L 7.046875 0 L 1.203125 0 L 1.203125 -10.890625 L 7.046875 -10.890625 L 7.046875 -9.71875 Z M 2.625 -9.71875 "/></g></g></g></g></g></svg>