<svg xmlns="http://www.w3.org/2000/svg" xmlns:xlink="http://www.w3.org/1999/xlink" width="500" zoomAndPan="magnify" viewBox="0 0 375 374.999991" height="500" preserveAspectRatio="xMidYMid meet" version="1.0"><defs><g/><clipPath id="1bdddea5d2"><path d="M 44.527344 137.058594 L 126.277344 137.058594 L 126.277344 218.808594 L 44.527344 218.808594 Z M 44.527344 137.058594 " clip-rule="nonzero"/></clipPath><clipPath id="5d3c2eb65a"><path d="M 0.527344 0.339844 L 82.277344 0.339844 L 82.277344 81.808594 L 0.527344 81.808594 Z M 0.527344 0.339844 " clip-rule="nonzero"/></clipPath><clipPath id="b0cf612bed"><rect x="0" width="83" y="0" height="82"/></clipPath><clipPath id="96c2357a63"><path d="M 63 156 L 107 156 L 107 200 L 63 200 Z M 63 156 " clip-rule="nonzero"/></clipPath><clipPath id="4dce65dd57"><path d="M 55.660156 176.542969 L 83.769531 148.433594 L 126.195312 190.859375 L 98.085938 218.96875 Z M 55.660156 176.542969 " clip-rule="nonzero"/></clipPath><clipPath id="0c41c74991"><path d="M 55.660156 176.542969 L 83.769531 148.433594 L 126.195312 190.859375 L 98.085938 218.96875 Z M 55.660156 176.542969 " clip-rule="nonzero"/></clipPath><clipPath id="e83e6117b3"><path d="M 98 191 L 111 191 L 111 203 L 98 203 Z M 98 191 " clip-rule="nonzero"/></clipPath><clipPath id="a2de531e7d"><path d="M 55.660156 176.542969 L 83.769531 148.433594 L 126.195312 190.859375 L 98.085938 218.96875 Z M 55.660156 176.542969 " clip-rule="nonzero"/></clipPath><clipPath id="54b5946cd4"><path d="M 55.660156 176.542969 L 83.769531 148.433594 L 126.195312 190.859375 L 98.085938 218.96875 Z M 55.660156 176.542969 " clip-rule="nonzero"/></clipPath><clipPath id="fcd3366a26"><path d="M 102 194 L 114 194 L 114 207 L 102 207 Z M 102 194 " clip-rule="nonzero"/></clipPath><clipPath id="77dedb6527"><path d="M 55.660156 176.542969 L 83.769531 148.433594 L 126.195312 190.859375 L 98.085938 218.96875 Z M 55.660156 176.542969 " clip-rule="nonzero"/></clipPath><clipPath id="b3dfd0af93"><path d="M 55.660156 176.542969 L 83.769531 148.433594 L 126.195312 190.859375 L 98.085938 218.96875 Z M 55.660156 176.542969 " clip-rule="nonzero"/></clipPath><clipPath id="debf1c419b"><path d="M 107 200 L 116 200 L 116 208 L 107 208 Z M 107 200 " clip-rule="nonzero"/></clipPath><clipPath id="086d989165"><path d="M 55.660156 176.542969 L 83.769531 148.433594 L 126.195312 190.859375 L 98.085938 218.96875 Z M 55.660156 176.542969 " clip-rule="nonzero"/></clipPath><clipPath id="51f08f42e9"><path d="M 55.660156 176.542969 L 83.769531 148.433594 L 126.195312 190.859375 L 98.085938 218.96875 Z M 55.660156 176.542969 " clip-rule="nonzero"/></clipPath><clipPath id="b9e459ff88"><rect x="0" width="161" y="0" height="64"/></clipPath><clipPath id="fd5849e21c"><rect x="0" width="205" y="0" height="20"/></clipPath></defs><g clip-path="url(#1bdddea5d2)"><g transform="matrix(1, 0, 0, 1, 44, 137)"><g clip-path="url(#b0cf612bed)"><g clip-path="url(#5d3c2eb65a)"><path fill="#ffb23e" d="M 42.125 0.0585938 L 40.941406 0.0585938 C 18.628906 0.0585938 0.527344 18.160156 0.527344 40.492188 L 0.527344 41.675781 C 0.527344 63.992188 18.628906 82.089844 40.960938 82.089844 L 82.359375 82.089844 C 82.476562 82.089844 82.558594 81.988281 82.558594 81.890625 L 82.558594 40.492188 C 82.558594 18.160156 64.460938 0.0585938 42.125 0.0585938 Z M 42.125 0.0585938 " fill-opacity="1" fill-rule="nonzero"/></g></g></g></g><g clip-path="url(#96c2357a63)"><g clip-path="url(#4dce65dd57)"><g clip-path="url(#0c41c74991)"><path fill="#041f3f" d="M 69.851562 162.382812 C 69.386719 162.847656 68.945312 163.332031 68.53125 163.839844 C 68.113281 164.347656 67.726562 164.875 67.359375 165.421875 C 66.996094 165.96875 66.660156 166.53125 66.351562 167.109375 C 66.042969 167.6875 65.761719 168.28125 65.511719 168.886719 C 65.261719 169.492188 65.039062 170.109375 64.851562 170.738281 C 64.660156 171.367188 64.5 172.003906 64.371094 172.644531 C 64.246094 173.289062 64.148438 173.9375 64.085938 174.589844 C 64.019531 175.246094 63.988281 175.898438 63.988281 176.554688 C 63.988281 177.210938 64.019531 177.867188 64.085938 178.519531 C 64.148438 179.171875 64.246094 179.820312 64.371094 180.464844 C 64.5 181.109375 64.660156 181.746094 64.851562 182.371094 C 65.039062 183 65.261719 183.617188 65.511719 184.226562 C 65.761719 184.832031 66.042969 185.425781 66.351562 186.003906 C 66.660156 186.582031 66.996094 187.144531 67.359375 187.691406 C 67.726562 188.238281 68.113281 188.761719 68.53125 189.269531 C 68.945312 189.777344 69.386719 190.265625 69.851562 190.730469 C 73.609375 194.492188 79.132812 195.300781 84.003906 196.023438 C 84.835938 196.148438 85.664062 196.265625 86.464844 196.394531 C 88.054688 196.664062 89.527344 197.238281 90.875 198.125 C 91.460938 198.515625 92.097656 198.800781 92.785156 198.972656 C 93.46875 199.148438 94.164062 199.203125 94.867188 199.136719 C 95.570312 199.070312 96.246094 198.890625 96.886719 198.59375 C 97.527344 198.296875 98.101562 197.902344 98.605469 197.40625 L 104.875 191.140625 C 105.367188 190.636719 105.761719 190.0625 106.058594 189.421875 C 106.351562 188.78125 106.53125 188.109375 106.597656 187.40625 C 106.664062 186.703125 106.609375 186.007812 106.433594 185.324219 C 106.261719 184.640625 105.980469 184.003906 105.585938 183.417969 C 104.707031 182.070312 104.128906 180.597656 103.863281 179.007812 C 103.726562 178.203125 103.609375 177.375 103.488281 176.546875 C 102.769531 171.664062 101.960938 166.144531 98.199219 162.382812 C 97.734375 161.917969 97.246094 161.480469 96.738281 161.0625 C 96.230469 160.648438 95.703125 160.257812 95.160156 159.894531 C 94.613281 159.527344 94.050781 159.191406 93.472656 158.882812 C 92.890625 158.574219 92.300781 158.292969 91.691406 158.042969 C 91.085938 157.792969 90.46875 157.570312 89.839844 157.382812 C 89.210938 157.191406 88.578125 157.03125 87.933594 156.90625 C 87.289062 156.777344 86.640625 156.679688 85.988281 156.617188 C 85.335938 156.550781 84.679688 156.519531 84.023438 156.519531 C 83.367188 156.519531 82.710938 156.550781 82.058594 156.617188 C 81.40625 156.679688 80.757812 156.777344 80.113281 156.90625 C 79.46875 157.03125 78.835938 157.191406 78.207031 157.382812 C 77.578125 157.570312 76.960938 157.792969 76.355469 158.042969 C 75.75 158.292969 75.15625 158.574219 74.578125 158.882812 C 73.996094 159.191406 73.433594 159.527344 72.890625 159.894531 C 72.34375 160.257812 71.816406 160.648438 71.308594 161.0625 C 70.800781 161.480469 70.3125 161.917969 69.851562 162.382812 Z M 69.851562 162.382812 " fill-opacity="1" fill-rule="nonzero"/></g></g></g><g clip-path="url(#e83e6117b3)"><g clip-path="url(#a2de531e7d)"><g clip-path="url(#54b5946cd4)"><path fill="#041f3f" d="M 107.941406 191.617188 L 99.082031 200.472656 C 98.964844 200.589844 98.875 200.726562 98.8125 200.878906 C 98.75 201.035156 98.714844 201.195312 98.714844 201.359375 C 98.714844 201.527344 98.75 201.6875 98.8125 201.839844 C 98.875 201.992188 98.964844 202.128906 99.082031 202.246094 C 99.199219 202.363281 99.335938 202.453125 99.488281 202.515625 C 99.644531 202.582031 99.804688 202.613281 99.96875 202.613281 C 100.136719 202.613281 100.296875 202.582031 100.449219 202.515625 C 100.601562 202.453125 100.738281 202.363281 100.855469 202.246094 L 109.714844 193.386719 C 109.832031 193.269531 109.921875 193.132812 109.984375 192.980469 C 110.050781 192.828125 110.082031 192.667969 110.082031 192.5 C 110.082031 192.335938 110.050781 192.175781 109.984375 192.023438 C 109.921875 191.867188 109.832031 191.734375 109.714844 191.617188 C 109.597656 191.5 109.460938 191.40625 109.308594 191.34375 C 109.152344 191.28125 108.996094 191.25 108.828125 191.25 C 108.660156 191.25 108.503906 191.28125 108.347656 191.34375 C 108.195312 191.40625 108.058594 191.5 107.941406 191.617188 Z M 107.941406 191.617188 " fill-opacity="1" fill-rule="nonzero"/></g></g></g><g clip-path="url(#fcd3366a26)"><g clip-path="url(#77dedb6527)"><g clip-path="url(#b3dfd0af93)"><path fill="#041f3f" d="M 111.484375 195.160156 L 102.625 204.019531 C 102.507812 204.136719 102.417969 204.269531 102.355469 204.425781 C 102.292969 204.578125 102.261719 204.738281 102.261719 204.902344 C 102.261719 205.070312 102.292969 205.230469 102.355469 205.382812 C 102.417969 205.535156 102.507812 205.671875 102.625 205.789062 C 102.746094 205.90625 102.878906 205.996094 103.035156 206.0625 C 103.1875 206.125 103.347656 206.15625 103.511719 206.15625 C 103.679688 206.15625 103.839844 206.125 103.992188 206.0625 C 104.144531 205.996094 104.28125 205.90625 104.398438 205.789062 L 113.257812 196.929688 C 113.375 196.8125 113.464844 196.679688 113.527344 196.523438 C 113.59375 196.371094 113.625 196.210938 113.625 196.042969 C 113.625 195.878906 113.59375 195.71875 113.527344 195.566406 C 113.464844 195.410156 113.375 195.277344 113.257812 195.160156 C 113.140625 195.042969 113.003906 194.949219 112.851562 194.886719 C 112.699219 194.824219 112.539062 194.792969 112.371094 194.792969 C 112.207031 194.792969 112.046875 194.824219 111.890625 194.886719 C 111.738281 194.949219 111.601562 195.042969 111.484375 195.160156 Z M 111.484375 195.160156 " fill-opacity="1" fill-rule="nonzero"/></g></g></g><g clip-path="url(#debf1c419b)"><g clip-path="url(#086d989165)"><g clip-path="url(#51f08f42e9)"><path fill="#041f3f" d="M 113.257812 200.472656 L 107.941406 205.789062 C 107.824219 205.90625 107.734375 206.042969 107.671875 206.195312 C 107.605469 206.347656 107.574219 206.507812 107.574219 206.675781 C 107.574219 206.839844 107.605469 207 107.671875 207.15625 C 107.734375 207.308594 107.824219 207.445312 107.941406 207.5625 C 108.058594 207.679688 108.195312 207.769531 108.347656 207.832031 C 108.503906 207.894531 108.660156 207.929688 108.828125 207.929688 C 108.992188 207.929688 109.152344 207.894531 109.308594 207.832031 C 109.460938 207.769531 109.597656 207.679688 109.714844 207.5625 L 115.027344 202.246094 C 115.148438 202.128906 115.238281 201.992188 115.300781 201.839844 C 115.363281 201.6875 115.394531 201.527344 115.394531 201.359375 C 115.394531 201.195312 115.363281 201.035156 115.300781 200.878906 C 115.238281 200.726562 115.148438 200.589844 115.027344 200.472656 C 114.910156 200.355469 114.777344 200.265625 114.621094 200.203125 C 114.46875 200.140625 114.308594 200.105469 114.144531 200.105469 C 113.976562 200.105469 113.816406 200.140625 113.664062 200.203125 C 113.511719 200.265625 113.375 200.355469 113.257812 200.472656 Z M 113.257812 200.472656 " fill-opacity="1" fill-rule="nonzero"/></g></g></g><g transform="matrix(1, 0, 0, 1, 143, 148)"><g clip-path="url(#b9e459ff88)"><g fill="#041f3f" fill-opacity="1"><g transform="translate(0.175435, 47.295717)"><g><path d="M 26.90625 -21.453125 C 26.90625 -19.617188 26.484375 -17.941406 25.640625 -16.421875 C 24.796875 -14.910156 23.503906 -13.6875 21.765625 -12.75 C 20.023438 -11.820312 17.863281 -11.359375 15.28125 -11.359375 L 10.5 -11.359375 L 10.5 0 L 2.796875 0 L 2.796875 -31.640625 L 15.28125 -31.640625 C 17.800781 -31.640625 19.929688 -31.203125 21.671875 -30.328125 C 23.410156 -29.453125 24.71875 -28.25 25.59375 -26.71875 C 26.46875 -25.1875 26.90625 -23.429688 26.90625 -21.453125 Z M 14.6875 -17.484375 C 16.164062 -17.484375 17.265625 -17.828125 17.984375 -18.515625 C 18.703125 -19.210938 19.0625 -20.191406 19.0625 -21.453125 C 19.0625 -22.710938 18.703125 -23.6875 17.984375 -24.375 C 17.265625 -25.070312 16.164062 -25.421875 14.6875 -25.421875 L 10.5 -25.421875 L 10.5 -17.484375 Z M 14.6875 -17.484375 "/></g></g></g><g fill="#041f3f" fill-opacity="1"><g transform="translate(26.802692, 47.295717)"><g><path d="M 26.5 -12.984375 C 26.5 -12.253906 26.453125 -11.5 26.359375 -10.71875 L 8.921875 -10.71875 C 9.046875 -9.15625 9.550781 -7.960938 10.4375 -7.140625 C 11.320312 -6.316406 12.410156 -5.90625 13.703125 -5.90625 C 15.617188 -5.90625 16.953125 -6.71875 17.703125 -8.34375 L 25.90625 -8.34375 C 25.488281 -6.6875 24.726562 -5.195312 23.625 -3.875 C 22.53125 -2.550781 21.15625 -1.515625 19.5 -0.765625 C 17.851562 -0.015625 16.007812 0.359375 13.96875 0.359375 C 11.507812 0.359375 9.316406 -0.164062 7.390625 -1.21875 C 5.460938 -2.269531 3.957031 -3.769531 2.875 -5.71875 C 1.800781 -7.675781 1.265625 -9.960938 1.265625 -12.578125 C 1.265625 -15.191406 1.796875 -17.472656 2.859375 -19.421875 C 3.929688 -21.367188 5.425781 -22.867188 7.34375 -23.921875 C 9.269531 -24.972656 11.476562 -25.5 13.96875 -25.5 C 16.40625 -25.5 18.566406 -24.988281 20.453125 -23.96875 C 22.347656 -22.945312 23.828125 -21.488281 24.890625 -19.59375 C 25.960938 -17.707031 26.5 -15.503906 26.5 -12.984375 Z M 18.609375 -15 C 18.609375 -16.320312 18.15625 -17.375 17.25 -18.15625 C 16.351562 -18.9375 15.226562 -19.328125 13.875 -19.328125 C 12.582031 -19.328125 11.492188 -18.953125 10.609375 -18.203125 C 9.722656 -17.453125 9.175781 -16.382812 8.96875 -15 Z M 18.609375 -15 "/></g></g></g><g fill="#041f3f" fill-opacity="1"><g transform="translate(53.069505, 47.295717)"><g><path d="M 16.8125 -6.53125 L 16.8125 0 L 12.890625 0 C 10.097656 0 7.921875 -0.679688 6.359375 -2.046875 C 4.796875 -3.410156 4.015625 -5.640625 4.015625 -8.734375 L 4.015625 -18.75 L 0.953125 -18.75 L 0.953125 -25.140625 L 4.015625 -25.140625 L 4.015625 -31.265625 L 11.71875 -31.265625 L 11.71875 -25.140625 L 16.765625 -25.140625 L 16.765625 -18.75 L 11.71875 -18.75 L 11.71875 -8.65625 C 11.71875 -7.90625 11.894531 -7.363281 12.25 -7.03125 C 12.613281 -6.695312 13.21875 -6.53125 14.0625 -6.53125 Z M 16.8125 -6.53125 "/></g></g></g><g fill="#041f3f" fill-opacity="1"><g transform="translate(69.874701, 47.295717)"><g><path d="M 30.1875 -31.640625 L 30.1875 0 L 22.484375 0 L 22.484375 -13.015625 L 10.5 -13.015625 L 10.5 0 L 2.796875 0 L 2.796875 -31.640625 L 10.5 -31.640625 L 10.5 -19.234375 L 22.484375 -19.234375 L 22.484375 -31.640625 Z M 30.1875 -31.640625 "/></g></g></g><g fill="#041f3f" fill-opacity="1"><g transform="translate(101.322888, 47.295717)"><g><path d="M 27.625 -25.140625 L 27.625 0 L 19.921875 0 L 19.921875 -3.421875 C 19.140625 -2.304688 18.078125 -1.410156 16.734375 -0.734375 C 15.398438 -0.0664062 13.921875 0.265625 12.296875 0.265625 C 10.378906 0.265625 8.679688 -0.160156 7.203125 -1.015625 C 5.734375 -1.867188 4.59375 -3.109375 3.78125 -4.734375 C 2.96875 -6.359375 2.5625 -8.265625 2.5625 -10.453125 L 2.5625 -25.140625 L 10.234375 -25.140625 L 10.234375 -11.484375 C 10.234375 -9.804688 10.664062 -8.5 11.53125 -7.5625 C 12.40625 -6.632812 13.578125 -6.171875 15.046875 -6.171875 C 16.546875 -6.171875 17.734375 -6.632812 18.609375 -7.5625 C 19.484375 -8.5 19.921875 -9.804688 19.921875 -11.484375 L 19.921875 -25.140625 Z M 27.625 -25.140625 "/></g></g></g><g fill="#041f3f" fill-opacity="1"><g transform="translate(130.202913, 47.295717)"><g><path d="M 10.5 -21.578125 C 11.21875 -22.753906 12.253906 -23.703125 13.609375 -24.421875 C 14.960938 -25.140625 16.507812 -25.5 18.25 -25.5 C 20.320312 -25.5 22.195312 -24.972656 23.875 -23.921875 C 25.5625 -22.867188 26.890625 -21.367188 27.859375 -19.421875 C 28.835938 -17.472656 29.328125 -15.207031 29.328125 -12.625 C 29.328125 -10.03125 28.835938 -7.75 27.859375 -5.78125 C 26.890625 -3.820312 25.5625 -2.304688 23.875 -1.234375 C 22.195312 -0.171875 20.320312 0.359375 18.25 0.359375 C 16.476562 0.359375 14.929688 0.0078125 13.609375 -0.6875 C 12.285156 -1.394531 11.25 -2.335938 10.5 -3.515625 L 10.5 0 L 2.796875 0 L 2.796875 -33.34375 L 10.5 -33.34375 Z M 21.5 -12.625 C 21.5 -14.539062 20.960938 -16.046875 19.890625 -17.140625 C 18.828125 -18.242188 17.515625 -18.796875 15.953125 -18.796875 C 14.421875 -18.796875 13.117188 -18.238281 12.046875 -17.125 C 10.984375 -16.007812 10.453125 -14.492188 10.453125 -12.578125 C 10.453125 -10.648438 10.984375 -9.128906 12.046875 -8.015625 C 13.117188 -6.910156 14.421875 -6.359375 15.953125 -6.359375 C 17.484375 -6.359375 18.789062 -6.921875 19.875 -8.046875 C 20.957031 -9.171875 21.5 -10.695312 21.5 -12.625 Z M 21.5 -12.625 "/></g></g></g></g></g><g transform="matrix(1, 0, 0, 1, 145, 204)"><g clip-path="url(#fd5849e21c)"><g fill="#041f3f" fill-opacity="1"><g transform="translate(1.053515, 14.988838)"><g><path d="M 3.96875 0.09375 C 3.351562 0.09375 2.800781 -0.015625 2.3125 -0.234375 C 1.832031 -0.453125 1.453125 -0.753906 1.171875 -1.140625 C 0.898438 -1.523438 0.765625 -1.972656 0.765625 -2.484375 L 2.046875 -2.484375 C 2.097656 -2.046875 2.28125 -1.675781 2.59375 -1.375 C 2.90625 -1.082031 3.363281 -0.9375 3.96875 -0.9375 C 4.550781 -0.9375 5.007812 -1.078125 5.34375 -1.359375 C 5.675781 -1.648438 5.84375 -2.023438 5.84375 -2.484375 C 5.84375 -2.835938 5.742188 -3.125 5.546875 -3.34375 C 5.347656 -3.5625 5.101562 -3.726562 4.8125 -3.84375 C 4.519531 -3.96875 4.125 -4.09375 3.625 -4.21875 C 3.007812 -4.382812 2.515625 -4.546875 2.140625 -4.703125 C 1.773438 -4.859375 1.460938 -5.109375 1.203125 -5.453125 C 0.941406 -5.796875 0.8125 -6.257812 0.8125 -6.84375 C 0.8125 -7.34375 0.941406 -7.785156 1.203125 -8.171875 C 1.460938 -8.566406 1.820312 -8.867188 2.28125 -9.078125 C 2.75 -9.296875 3.285156 -9.40625 3.890625 -9.40625 C 4.765625 -9.40625 5.476562 -9.1875 6.03125 -8.75 C 6.582031 -8.320312 6.894531 -7.75 6.96875 -7.03125 L 5.640625 -7.03125 C 5.597656 -7.382812 5.410156 -7.695312 5.078125 -7.96875 C 4.742188 -8.238281 4.304688 -8.375 3.765625 -8.375 C 3.265625 -8.375 2.851562 -8.238281 2.53125 -7.96875 C 2.207031 -7.707031 2.046875 -7.34375 2.046875 -6.875 C 2.046875 -6.539062 2.140625 -6.265625 2.328125 -6.046875 C 2.523438 -5.835938 2.765625 -5.675781 3.046875 -5.5625 C 3.328125 -5.445312 3.71875 -5.320312 4.21875 -5.1875 C 4.832031 -5.019531 5.328125 -4.851562 5.703125 -4.6875 C 6.078125 -4.519531 6.394531 -4.265625 6.65625 -3.921875 C 6.925781 -3.578125 7.0625 -3.113281 7.0625 -2.53125 C 7.0625 -2.082031 6.941406 -1.65625 6.703125 -1.25 C 6.460938 -0.851562 6.109375 -0.53125 5.640625 -0.28125 C 5.171875 -0.03125 4.613281 0.09375 3.96875 0.09375 Z M 3.96875 0.09375 "/></g></g></g><g fill="#041f3f" fill-opacity="1"><g transform="translate(10.79022, 14.988838)"><g><path d="M 2.234375 -9.296875 L 2.234375 0 L 1.03125 0 L 1.03125 -9.296875 Z M 2.234375 -9.296875 "/></g></g></g><g fill="#041f3f" fill-opacity="1"><g transform="translate(15.985514, 14.988838)"><g><path d="M 3.96875 0.09375 C 3.351562 0.09375 2.800781 -0.015625 2.3125 -0.234375 C 1.832031 -0.453125 1.453125 -0.753906 1.171875 -1.140625 C 0.898438 -1.523438 0.765625 -1.972656 0.765625 -2.484375 L 2.046875 -2.484375 C 2.097656 -2.046875 2.28125 -1.675781 2.59375 -1.375 C 2.90625 -1.082031 3.363281 -0.9375 3.96875 -0.9375 C 4.550781 -0.9375 5.007812 -1.078125 5.34375 -1.359375 C 5.675781 -1.648438 5.84375 -2.023438 5.84375 -2.484375 C 5.84375 -2.835938 5.742188 -3.125 5.546875 -3.34375 C 5.347656 -3.5625 5.101562 -3.726562 4.8125 -3.84375 C 4.519531 -3.96875 4.125 -4.09375 3.625 -4.21875 C 3.007812 -4.382812 2.515625 -4.546875 2.140625 -4.703125 C 1.773438 -4.859375 1.460938 -5.109375 1.203125 -5.453125 C 0.941406 -5.796875 0.8125 -6.257812 0.8125 -6.84375 C 0.8125 -7.34375 0.941406 -7.785156 1.203125 -8.171875 C 1.460938 -8.566406 1.820312 -8.867188 2.28125 -9.078125 C 2.75 -9.296875 3.285156 -9.40625 3.890625 -9.40625 C 4.765625 -9.40625 5.476562 -9.1875 6.03125 -8.75 C 6.582031 -8.320312 6.894531 -7.75 6.96875 -7.03125 L 5.640625 -7.03125 C 5.597656 -7.382812 5.410156 -7.695312 5.078125 -7.96875 C 4.742188 -8.238281 4.304688 -8.375 3.765625 -8.375 C 3.265625 -8.375 2.851562 -8.238281 2.53125 -7.96875 C 2.207031 -7.707031 2.046875 -7.34375 2.046875 -6.875 C 2.046875 -6.539062 2.140625 -6.265625 2.328125 -6.046875 C 2.523438 -5.835938 2.765625 -5.675781 3.046875 -5.5625 C 3.328125 -5.445312 3.71875 -5.320312 4.21875 -5.1875 C 4.832031 -5.019531 5.328125 -4.851562 5.703125 -4.6875 C 6.078125 -4.519531 6.394531 -4.265625 6.65625 -3.921875 C 6.925781 -3.578125 7.0625 -3.113281 7.0625 -2.53125 C 7.0625 -2.082031 6.941406 -1.65625 6.703125 -1.25 C 6.460938 -0.851562 6.109375 -0.53125 5.640625 -0.28125 C 5.171875 -0.03125 4.613281 0.09375 3.96875 0.09375 Z M 3.96875 0.09375 "/></g></g></g><g fill="#041f3f" fill-opacity="1"><g transform="translate(25.722219, 14.988838)"><g><path d="M 6.75 -9.296875 L 6.75 -8.296875 L 4.21875 -8.296875 L 4.21875 0 L 3 0 L 3 -8.296875 L 0.453125 -8.296875 L 0.453125 -9.296875 Z M 6.75 -9.296875 "/></g></g></g><g fill="#041f3f" fill-opacity="1"><g transform="translate(34.8463, 14.988838)"><g><path d="M 2.234375 -8.296875 L 2.234375 -5.203125 L 5.625 -5.203125 L 5.625 -4.203125 L 2.234375 -4.203125 L 2.234375 -1 L 6.03125 -1 L 6.03125 0 L 1.03125 0 L 1.03125 -9.296875 L 6.03125 -9.296875 L 6.03125 -8.296875 Z M 2.234375 -8.296875 "/></g></g></g><g fill="#041f3f" fill-opacity="1"><g transform="translate(43.597481, 14.988838)"><g><path d="M 10.453125 -9.21875 L 10.453125 0 L 9.234375 0 L 9.234375 -6.875 L 6.171875 0 L 5.3125 0 L 2.234375 -6.890625 L 2.234375 0 L 1.03125 0 L 1.03125 -9.21875 L 2.328125 -9.21875 L 5.75 -1.59375 L 9.15625 -9.21875 Z M 10.453125 -9.21875 "/></g></g></g><g fill="#041f3f" fill-opacity="1"><g transform="translate(56.983305, 14.988838)"><g><path d="M 6.515625 -2.0625 L 2.46875 -2.0625 L 1.71875 0 L 0.4375 0 L 3.796875 -9.234375 L 5.203125 -9.234375 L 8.546875 0 L 7.265625 0 Z M 6.171875 -3.046875 L 4.484375 -7.75 L 2.8125 -3.046875 Z M 6.171875 -3.046875 "/></g></g></g><g fill="#041f3f" fill-opacity="1"><g transform="translate(67.878677, 14.988838)"><g/></g></g><g fill="#041f3f" fill-opacity="1"><g transform="translate(73.353639, 14.988838)"><g><path d="M 7.234375 -6.578125 C 7.234375 -5.796875 6.96875 -5.148438 6.4375 -4.640625 C 5.914062 -4.128906 5.113281 -3.875 4.03125 -3.875 L 2.234375 -3.875 L 2.234375 0 L 1.03125 0 L 1.03125 -9.296875 L 4.03125 -9.296875 C 5.070312 -9.296875 5.863281 -9.039062 6.40625 -8.53125 C 6.957031 -8.019531 7.234375 -7.367188 7.234375 -6.578125 Z M 4.03125 -4.875 C 4.695312 -4.875 5.191406 -5.019531 5.515625 -5.3125 C 5.835938 -5.601562 6 -6.023438 6 -6.578125 C 6 -7.722656 5.34375 -8.296875 4.03125 -8.296875 L 2.234375 -8.296875 L 2.234375 -4.875 Z M 4.03125 -4.875 "/></g></g></g><g fill="#041f3f" fill-opacity="1"><g transform="translate(82.983807, 14.988838)"><g><path d="M 2.234375 -8.296875 L 2.234375 -5.203125 L 5.625 -5.203125 L 5.625 -4.203125 L 2.234375 -4.203125 L 2.234375 -1 L 6.03125 -1 L 6.03125 0 L 1.03125 0 L 1.03125 -9.296875 L 6.03125 -9.296875 L 6.03125 -8.296875 Z M 2.234375 -8.296875 "/></g></g></g><g fill="#041f3f" fill-opacity="1"><g transform="translate(91.734988, 14.988838)"><g><path d="M 6.75 -9.296875 L 6.75 -8.296875 L 4.21875 -8.296875 L 4.21875 0 L 3 0 L 3 -8.296875 L 0.453125 -8.296875 L 0.453125 -9.296875 Z M 6.75 -9.296875 "/></g></g></g><g fill="#041f3f" fill-opacity="1"><g transform="translate(100.859069, 14.988838)"><g/></g></g><g fill="#041f3f" fill-opacity="1"><g transform="translate(106.334031, 14.988838)"><g><path d="M 2.234375 -9.296875 L 2.234375 0 L 1.03125 0 L 1.03125 -9.296875 Z M 2.234375 -9.296875 "/></g></g></g><g fill="#041f3f" fill-opacity="1"><g transform="translate(111.529325, 14.988838)"><g><path d="M 8.328125 0 L 7.125 0 L 2.234375 -7.390625 L 2.234375 0 L 1.03125 0 L 1.03125 -9.296875 L 2.234375 -9.296875 L 7.125 -1.921875 L 7.125 -9.296875 L 8.328125 -9.296875 Z M 8.328125 0 "/></g></g></g><g fill="#041f3f" fill-opacity="1"><g transform="translate(122.810915, 14.988838)"><g><path d="M 6.75 -9.296875 L 6.75 -8.296875 L 4.21875 -8.296875 L 4.21875 0 L 3 0 L 3 -8.296875 L 0.453125 -8.296875 L 0.453125 -9.296875 Z M 6.75 -9.296875 "/></g></g></g><g fill="#041f3f" fill-opacity="1"><g transform="translate(131.934995, 14.988838)"><g><path d="M 2.234375 -8.296875 L 2.234375 -5.203125 L 5.625 -5.203125 L 5.625 -4.203125 L 2.234375 -4.203125 L 2.234375 -1 L 6.03125 -1 L 6.03125 0 L 1.03125 0 L 1.03125 -9.296875 L 6.03125 -9.296875 L 6.03125 -8.296875 Z M 2.234375 -8.296875 "/></g></g></g><g fill="#041f3f" fill-opacity="1"><g transform="translate(140.686177, 14.988838)"><g><path d="M 2.234375 -0.984375 L 5.484375 -0.984375 L 5.484375 0 L 1.03125 0 L 1.03125 -9.296875 L 2.234375 -9.296875 Z M 2.234375 -0.984375 "/></g></g></g><g fill="#041f3f" fill-opacity="1"><g transform="translate(148.358604, 14.988838)"><g><path d="M 2.234375 -9.296875 L 2.234375 0 L 1.03125 0 L 1.03125 -9.296875 Z M 2.234375 -9.296875 "/></g></g></g><g fill="#041f3f" fill-opacity="1"><g transform="translate(153.553898, 14.988838)"><g><path d="M 8.0625 -6.59375 C 7.800781 -7.132812 7.425781 -7.550781 6.9375 -7.84375 C 6.445312 -8.144531 5.878906 -8.296875 5.234375 -8.296875 C 4.585938 -8.296875 4.003906 -8.144531 3.484375 -7.84375 C 2.960938 -7.550781 2.550781 -7.128906 2.25 -6.578125 C 1.957031 -6.023438 1.8125 -5.382812 1.8125 -4.65625 C 1.8125 -3.925781 1.957031 -3.285156 2.25 -2.734375 C 2.550781 -2.179688 2.960938 -1.753906 3.484375 -1.453125 C 4.003906 -1.160156 4.585938 -1.015625 5.234375 -1.015625 C 6.140625 -1.015625 6.882812 -1.285156 7.46875 -1.828125 C 8.0625 -2.367188 8.40625 -3.101562 8.5 -4.03125 L 4.796875 -4.03125 L 4.796875 -5.015625 L 9.796875 -5.015625 L 9.796875 -4.078125 C 9.722656 -3.316406 9.484375 -2.617188 9.078125 -1.984375 C 8.671875 -1.347656 8.132812 -0.84375 7.46875 -0.46875 C 6.800781 -0.101562 6.054688 0.078125 5.234375 0.078125 C 4.367188 0.078125 3.582031 -0.125 2.875 -0.53125 C 2.164062 -0.9375 1.601562 -1.5 1.1875 -2.21875 C 0.78125 -2.9375 0.578125 -3.75 0.578125 -4.65625 C 0.578125 -5.5625 0.78125 -6.375 1.1875 -7.09375 C 1.601562 -7.820312 2.164062 -8.382812 2.875 -8.78125 C 3.582031 -9.1875 4.367188 -9.390625 5.234375 -9.390625 C 6.222656 -9.390625 7.097656 -9.144531 7.859375 -8.65625 C 8.617188 -8.175781 9.171875 -7.488281 9.515625 -6.59375 Z M 8.0625 -6.59375 "/></g></g></g><g fill="#041f3f" fill-opacity="1"><g transform="translate(165.83433, 14.988838)"><g><path d="M 2.234375 -8.296875 L 2.234375 -5.203125 L 5.625 -5.203125 L 5.625 -4.203125 L 2.234375 -4.203125 L 2.234375 -1 L 6.03125 -1 L 6.03125 0 L 1.03125 0 L 1.03125 -9.296875 L 6.03125 -9.296875 L 6.03125 -8.296875 Z M 2.234375 -8.296875 "/></g></g></g><g fill="#041f3f" fill-opacity="1"><g transform="translate(174.585511, 14.988838)"><g><path d="M 8.328125 0 L 7.125 0 L 2.234375 -7.390625 L 2.234375 0 L 1.03125 0 L 1.03125 -9.296875 L 2.234375 -9.296875 L 7.125 -1.921875 L 7.125 -9.296875 L 8.328125 -9.296875 Z M 8.328125 0 "/></g></g></g><g fill="#041f3f" fill-opacity="1"><g transform="translate(185.867101, 14.988838)"><g><path d="M 6.75 -9.296875 L 6.75 -8.296875 L 4.21875 -8.296875 L 4.21875 0 L 3 0 L 3 -8.296875 L 0.453125 -8.296875 L 0.453125 -9.296875 Z M 6.75 -9.296875 "/></g></g></g><g fill="#041f3f" fill-opacity="1"><g transform="translate(194.991182, 14.988838)"><g><path d="M 2.234375 -8.296875 L 2.234375 -5.203125 L 5.625 -5.203125 L 5.625 -4.203125 L 2.234375 -4.203125 L 2.234375 -1 L 6.03125 -1 L 6.03125 0 L 1.03125 0 L 1.03125 -9.296875 L 6.03125 -9.296875 L 6.03125 -8.296875 Z M 2.234375 -8.296875 "/></g></g></g></g></g></svg>